<svg t="1625391404339" class="icon" viewBox="0 0 1024 1024" version="1.1" xmlns="http://www.w3.org/2000/svg" p-id="2656" width="128" height="128">
<path d="M468 858.5c-0.7 0-1.4 0-2.1-0.1-14-1.1-24.5-13.1-23.4-26.7l64.7-786.5 113.8-15c14-1.8 26.8 7.7 28.7 21.3 1.9 13.6-7.9 26.1-21.9 27.9l-73 9.6-61.4 746.6c-1.1 13-12.3 22.9-25.4 22.9z" fill="#F41E28" p-id="2657"></path>
<path d="M648.5 929.4h-271c-15.6 0-28.6-13.2-29.8-30.3 0 0-21.6-181.4-31.4-282.3C305.1 501.5 304 304.2 304 304.2h418s-1.5 214.8-12.4 312.6-31.4 282.3-31.4 282.3c-1.1 17.1-14.1 30.3-29.7 30.3z" fill="#C60909" p-id="2658"></path>
<path d="M513 221.4h190.7c23.8 0 43.2 18.9 43.2 42.1v28.3c0 6.8-5.7 12.4-12.7 12.4H291.8c-7 0-12.7-5.6-12.7-12.4v-28.3c0-23.2 19.4-42.1 43.2-42.1H513z" fill="#A8A8A8" p-id="2659"></path>
<path d="M464.4 835.9c-0.6 0-1.3 0-2-0.1-13.3-1.1-23.2-12.7-22.2-26l61.4-765.1 107.9-14.5c13.2-1.8 25.4 7.5 27.2 20.7 1.8 13.2-7.5 25.4-20.7 27.2l-69.3 9.3-58.3 726.3c-1 12.6-11.6 22.2-24 22.2z" fill="#FF4F51" p-id="2660"></path>
<path d="M629.4 912.4h-257c-14.8 0-27.1-12.9-28.2-29.5 0 0-20.5-176.5-29.7-274.6-10.6-112.2-11.7-304.1-11.7-304.1h396.4s-1.4 209-11.7 304.1c-10.3 95.1-29.7 274.6-29.7 274.6-1.3 16.7-13.6 29.5-28.4 29.5z" fill="#D82727" p-id="2661"></path>
<path d="M500.9 222.5h180.8c22.5 0 40.9 18.4 40.9 40.9V291c0 6.6-5.4 12.1-12.1 12.1H291.2c-6.6 0-12.1-5.4-12.1-12.1v-27.5c0-22.5 18.4-40.9 40.9-40.9h180.9z" fill="#EFEFEF" p-id="2662"></path>
<path d="M601.8 402.3m-30.6 0a30.6 30.6 0 1 0 61.2 0 30.6 30.6 0 1 0-61.2 0Z" fill="#EFEFEF" p-id="2663"></path>
<path d="M601.8 659.6c-12.9 0-23.4-10.5-23.4-23.4V487c0-12.9 10.5-23.4 23.4-23.4 12.9 0 23.4 10.5 23.4 23.4v149.1c0 12.9-10.6 23.5-23.4 23.5z" fill="#EFEFEF" p-id="2664"></path>
</svg>
